<?xml version="1.0" encoding="utf-8"?>
<!-- Generator: Adobe Illustrator 18.1.0, SVG Export Plug-In . SVG Version: 6.00 Build 0)  -->
<!DOCTYPE svg PUBLIC "-//W3C//DTD SVG 1.1//EN" "http://www.w3.org/Graphics/SVG/1.1/DTD/svg11.dtd">
<svg version="1.1" id="Layer_1" xmlns="http://www.w3.org/2000/svg" xmlns:xlink="http://www.w3.org/1999/xlink" x="0px" y="0px"
	 viewBox="0 0 1071.5 487.7" enable-background="new 0 0 1071.5 487.7" xml:space="preserve">
<path d="M988,191.7c-43.4,0-79.1,33-83.5,75.2v17.4c0,0.1,0,0.3,0,0.4v59.6h-67.4c14.7-16.3,23.6-37.8,23.6-61.3
	c0-50.5-41.1-91.7-91.7-91.7s-91.7,41.1-91.7,91.7c0,23.6,8.9,45.1,23.6,61.3h-70.3V0h-30v344.3H553v-64.2h-0.4
	c-1.5-49.2-42-88.8-91.6-88.8c-50.5,0-91.7,41.1-91.7,91.7c0,23.6,8.9,45.1,23.6,61.3h-90.4l60.3-152.5h-36.5l-50.2,130.8
	l-50.2-130.8h-36.5l60.3,152.5h-66.3v-64.2h-0.1c-1.5-49.2-42-88.8-91.6-88.8C41.1,191.3,0,232.5,0,283c0,50.5,41.1,91.7,91.7,91.7
	c23.7,0,45.4-9.1,61.7-23.9v23.6h25h5h269.9c2.6,0.2,5.2,0.3,7.8,0.3c23.9,0,45.7-9.2,62-24.2v23.9h28.3h1.7h208.2
	c2.6,0.2,5.2,0.3,7.8,0.3s5.2-0.1,7.8-0.3h127.7h29.8h0.4v-33.8v-56v-17.8c4.3-25.5,26.5-45.1,53.2-45.1c26.7,0,49,19.5,53.2,45.1
	v17.8v56v33.8h30.2v-89.6c0-0.1,0-0.1,0-0.2v-17.8C1067,224.6,1031.3,191.7,988,191.7z M91.7,344.7C57.7,344.7,30,317,30,283
	c0-34,27.7-61.7,61.7-61.7c34,0,61.7,27.7,61.7,61.7C153.3,317,125.7,344.7,91.7,344.7z M461,344.7c-0.7,0-1.3,0-2-0.1v-0.3h-4.4
	c-31-3.2-55.3-29.5-55.3-61.3c0-34,27.7-61.7,61.7-61.7c34,0,61.7,27.7,61.7,61.7C522.7,317,495,344.7,461,344.7z M707.3,283
	c0-34,27.7-61.7,61.7-61.7s61.7,27.7,61.7,61.7c0,31.8-24.3,58.1-55.3,61.3h-12.8C731.6,341.1,707.3,314.8,707.3,283z"/>
<g>
	<path d="M439.4,394.4h51.6v12.2h-37.8v25.7h37.7V444h-37.7v27h39.2V483h-53V394.4z"/>
	<path d="M528.7,438.6l-32.3-44.2l16.9,0l23.6,33.5l23.3-33.5l17,0L545,438.6l32.2,44.4l-16.8,0l-23.5-34.2L513.3,483l-16.9,0
		L528.7,438.6z"/>
	<path d="M610.9,405.8l-4.7,1.1c-5.7,1.7-10.7,4.9-14.8,9.7c-5.8,6.6-8.4,14.3-7.7,23.3c0.7,9,4.4,16.5,11.3,22.5
		c6.8,6,14.7,8.8,23.7,8.4c9-0.4,16.4-3.9,22.2-10.5c2.7-3.1,4.7-6.3,5.8-9.6c1.2-3.3,1.9-7.1,2.1-11.3l12.6,0.4l-0.5,7.3
		c-0.7,3.5-1.9,7.1-3.7,10.9c-1.8,3.8-4.1,7.2-6.7,10.2c-8.5,9.6-18.9,14.8-31.2,15.8c-12.4,0.9-23.3-2.8-32.9-11.3
		c-9.5-8.4-14.6-18.8-15.5-31.5c-0.8-12.6,2.9-23.7,11.3-33.2c3.9-4.4,7.9-7.6,12.2-9.9c4.3-2.2,9.3-3.8,14.9-4.9L610.9,405.8z"/>
	<path d="M673.9,394.4h13.8V431h41.3v-36.6h13.8V483h-13.8v-39.8h-41.3V483h-13.8V394.4z"/>
	<path d="M787.7,389.7l44.2,93.3l-14.7,0l-13.2-27.7h-32.8l-13.2,27.7l-14.7,0L787.7,389.7z M776.4,443.2l22.3,0l-11.1-25.4
		L776.4,443.2z"/>
	<path d="M831.4,390.5l65.2,67.3l-1.7-5.8c-0.3-1.5-0.4-3.4-0.4-5.9v-51.8h14.5v93.3l-65-68.5c1,3.4,1.5,6.7,1.5,10.1V483h-14.1
		V390.5z"/>
	<path d="M965,406.5c-2.6,0.2-5.2,0.6-7.7,1.1c-2.6,0.6-4.9,1.2-6.9,2c-4,1.8-7.5,4.2-10.4,7.5c-5.9,6.6-8.7,14.4-8.3,23.5
		c0.4,9.1,4,16.7,10.7,22.9c6.8,6.2,14.7,9.1,23.7,8.8c9-0.3,16.5-3.9,22.8-10.8c5.6-6.1,8.3-12.5,8.3-19c0-6.6-0.6-11-1.6-13.3
		c-1.1-2.3-2-4.1-2.8-5.4l-2.5-3.6l-36.8,40.6l-8.7-7.9l46.2-50.9l4.4,3.7c9.5,8.6,14.5,19.1,15,31.5c0.5,12.4-3.5,23.3-12.2,32.8
		c-8.6,9.5-19.1,14.6-31.7,15.3c-12.5,0.7-23.5-3.2-32.9-11.7c-9.5-8.6-14.5-19.2-15.1-31.7c-0.6-12.6,3.5-23.7,12.3-33.4
		c9.6-10.6,21.2-15.5,34.9-14.7L965,406.5z"/>
	<path d="M1018.6,394.8h51.6V407h-37.8v25.7h37.7v11.8h-37.7v27h39.2v11.9h-53V394.8z"/>
</g>
</svg>
