<?xml version="1.0" encoding="utf-8"?>
<!-- Generator: Adobe Illustrator 19.0.0, SVG Export Plug-In . SVG Version: 6.00 Build 0)  -->
<svg version="1.1" id="Layer_1" xmlns="http://www.w3.org/2000/svg" xmlns:xlink="http://www.w3.org/1999/xlink" x="0px" y="0px"
	 viewBox="0 0 217.6 89.8" style="enable-background:new 0 0 217.6 89.8;" xml:space="preserve">
<g>
	<g>
		<path d="M63.5,65.1c0-6.9,2.5-16.6,5.8-26.1c-3.1,0.2-6.2,0.4-9.2,0.7C46.2,58.5,28,78.2,12.5,78.2C5.5,78.2,0,73.8,0,66.8
			c0-14.7,22.3-25.3,56.8-28.4C70.7,20,81.5,1.8,82,1.1C82.6,0.3,83.5,0,84.5,0c2.2,0,4.8,1.6,4.8,3c0,0.2-0.1,0.3-0.1,0.4
			c-0.6,1.5-7.4,18.1-13,34.1c0.7,0,1.3-0.1,2-0.1c1.3,0,5.2-0.3,5.2,0.5c0,0.3-0.3,0.6-0.8,0.6c-2.3,0-4.5,0.1-6.8,0.2
			c-3.9,11.2-7.1,22.1-7.1,27.2c0,2.9,1.4,4.2,2.8,4.2c6.1,0,20.2-27.4,20.7-28.8l1.3,0.3C91.2,47.2,77.8,73,71.7,73
			C67.6,73,63.5,69.2,63.5,65.1z M55.4,40.2C25.9,43.7,1,53.1,1,67.2c0,5.8,4.8,9.1,10.8,9.1C24.4,76.3,41.3,58.5,55.4,40.2z
			 M69.7,37.6c5.7-16.1,13.1-31.5,13.1-32l-0.3-0.3c-0.3,0-9,15.8-21.3,32.7C64.1,37.9,66.9,37.7,69.7,37.6z"/>
		<path d="M97.9,34.1c1,0,2.6,0.3,2.6,1.1c-0.1,0.2-0.1,0.4-0.3,0.7c-4.1,8.1-11.7,25.5-11.7,29.4c0,1.7,0.6,2.3,2,2.3
			c4.3,0,18.6-18.4,18.6-29.7c0-3.8-2.6-4-2.6-6c0-0.9,0.8-1.6,2.1-1.6c2,0,2.9,2.4,2.9,5.3c0,12.2-14.3,34.4-23.6,34.4
			c-3.1,0-3.9-1.6-3.9-4c0-5.8,7-22.6,11.2-30.9C95.6,34.4,96.9,34.1,97.9,34.1z"/>
		<path d="M136.3,34.9c0,2.1-0.6,4.8-1.4,6.5c0.1,0.3,0.2,0.5,0.2,0.6c0,0.1-0.1,0.3-0.1,0.4c-3.6,6-9.4,17.3-9.4,20.8
			c0,1.5,0.8,2.7,2.2,2.7c4.6,0,14.4-19.3,14.7-20.5l1.1,0.3c-1.9,4.8-10.3,21.6-16,21.6c-3.7,0-6-2-6-5c0-0.9,0.1-1.8,0.4-2.8
			c-3.5,5-7,10.5-10.9,10.5c-3.1,0-5-2.2-5-7.2c0-11.7,15.8-33.3,25.8-33.3C135.3,29.7,136.3,32.1,136.3,34.9z M132.4,38.9
			c0.1,0,0.4,0.1,0.6,0.1c0.7-1.8,1.4-4.1,1.4-5.8c0-1.2-0.4-2.1-1.5-2.1c-6.8,0-22.7,21.7-22.7,33.5c0,2.3,1.2,3.6,2.1,3.6
			c2.8,0,6.4-6.5,10.4-11c1.7-5.8,5.4-13.2,8.6-17.7C131.7,39.1,132.1,38.9,132.4,38.9z"/>
		<path d="M166.7,10.5c2.1,0,3.7,1.5,3.7,3.3c0,8.7-14.8,26.7-26.2,38c-1.2,4.3-1.9,8.3-1.9,11.3c0,3.8,1.9,5,3.3,5
			c4.6,0,15.6-21.4,15.9-22.6l1.1,0.3c-1.9,4.8-11.5,23.7-17.2,23.7c-3.8,0-7.2-3.1-7.2-8.2C138.2,47.1,156.9,10.5,166.7,10.5z
			 M144.8,49.5c10.1-10.7,23.7-27.2,23.7-35.8c0-1.1-0.9-1.6-1.8-1.6C161.2,12.1,150,33,144.8,49.5z"/>
		<path d="M182.2,40.2c0,5-1.8,10.9-4.6,16.3c6.3-1.1,9.7-8.2,10.9-11l1.1,0.3c-1.9,4.8-5.9,11.8-12.9,12.4
			c-3.8,6.7-8.9,11.9-13.4,11.9c-3.3,0-7.3-3.3-7.3-8.2c0-13.1,12.2-27.1,19.4-27.1C178,34.6,182.2,36.6,182.2,40.2z M173.1,57.9
			c-3.9-1-6.9-4.2-6.9-9.2c0-0.9,0.1-1.8,0.3-2.6c-3.6,5.2-6.6,12-6.6,18.3c0,2.5,1.6,3.4,2.9,3.4C166,67.8,169.9,63.4,173.1,57.9z
			 M174.7,37.6c-3.1,2.1-5.5,7.9-5.5,11.3c0,4.3,2,6.8,4.7,7.5c3.1-5.9,5.4-12.8,5.4-17.6c0-1.1-0.9-2.1-2.1-2.1
			C176.5,36.8,175.6,37.1,174.7,37.6z"/>
		<path d="M192.4,36.9c0.6-1.2,0.8-2.2,1.6-2.2c1.1,0,1.5,1,1.5,2.2c0,1.1-0.4,2.3-0.7,3.1l-9,18.3c3.8-5.4,18.1-23.3,24.7-23.3
			c1,0,3,1.4,3,2.6c0,3.8-15.1,18.9-15.1,27.6c0,1.6,1,2.8,2.1,2.8c4.6,0,15.6-21.4,15.9-22.6l1.1,0.3c-1.9,4.8-11.5,23.7-17.2,23.7
			c-1.4,0-6-0.1-6-5.4c0-9.9,13.2-24.2,13.2-25.5c0-0.4-0.1-0.6-0.5-0.6c-3.4,0-22.2,21.9-24.9,28.1l-0.9,2.1
			C180.5,70,179,70,178,70c-0.5,0-0.9-0.6-0.9-1C177,68.3,187.2,47.6,192.4,36.9z"/>
	</g>
	<g>
		<path d="M73.3,89.7h-7.4v-1.2l1-0.1v-6.3l-1-0.1v-1.2h7.3v2.4h-1.6L71.5,82H69v2.5h3v1.3h-3v2.6h2.7l0.1-1.3h1.6V89.7z"/>
		<path d="M92.8,89.7h-2.6L88,86.2l-1.3,2.2l0.9,0.1v1.2h-3.4v-1.2l0.9-0.1l2.1-3.3l-1.9-3L84.4,82v-1.2H87l2,3.2l1.2-1.9L89.3,82
			v-1.2h3.4V82l-0.9,0.1l-1.9,3.1l2.1,3.2l0.9,0.1V89.7z"/>
		<path d="M110.5,89.5c-0.4,0.2-1.9,0.4-3.2,0.4c-2.9,0-3.7-1.6-3.7-4.7c0-2.9,1.2-4.5,4-4.5c1.1,0,2.6,0.2,2.9,0.4v2.3h-1.6
			l-0.1-1.2c-0.1,0-0.6-0.1-1.1-0.1c-1.8,0-2.1,1.6-2.1,3.2c0,1.8,0.2,3.4,2.1,3.4c0.5,0,1-0.1,1.1-0.1L109,87h1.6V89.5z"/>
		<path d="M130.7,89.7h-4v-1.2l0.9-0.1v-2.6h-3.1v2.6l0.9,0.1v1.2h-4v-1.2l1-0.1v-6.3l-1-0.1v-1.2h4V82l-0.9,0.1v2.4h3.1v-2.4
			l-0.9-0.1v-1.2h4V82l-1,0.1v6.3l1,0.1V89.7z"/>
		<path d="M150.6,89.7h-4v-1.2l0.9-0.1l-0.4-1.2h-3.2l-0.4,1.2l0.9,0.1v1.2h-3.3v-1.2l0.9-0.1l2.7-7.6h2.2l2.7,7.6l0.9,0.1V89.7z
			 M146.8,86l-1.2-3.6l-1.2,3.6H146.8z"/>
		<path d="M170.4,82l-1,0.1v7.6H168l-4.5-6.2v5l1,0.1v1.2h-3.4v-1.2l1-0.1v-6.3l-1-0.1v-1.2h3l3.8,5.4v-4.1L167,82v-1.2h3.3V82z"/>
		<path d="M188.6,89.3c-0.4,0.2-2,0.5-3.4,0.5c-3,0-3.8-1.6-3.8-4.7c0-2.9,1.2-4.5,4.2-4.5c1.3,0,2.5,0.3,2.8,0.4v2.2h-1.6l-0.1-1.1
			c-0.2-0.1-0.6-0.2-1.2-0.2c-1.7,0-2,1.6-2,3.2c0,1.8,0.3,3.4,2,3.4c0.6,0,1.2-0.1,1.4-0.2v-2.3l-1.1-0.1v-1.1h3V89.3z"/>
		<path d="M207.3,89.7h-7.4v-1.2l1-0.1v-6.3l-1-0.1v-1.2h7.3v2.4h-1.6l-0.1-1.2H203v2.5h3v1.3h-3v2.6h2.7l0.1-1.3h1.6V89.7z"/>
	</g>
</g>
</svg>
